<?xml version="1.0" encoding="utf-8"?>
<!-- Generator: Adobe Illustrator 21.1.0, SVG Export Plug-In . SVG Version: 6.00 Build 0)  -->
<svg version="1.1" id="Layer_1" xmlns="http://www.w3.org/2000/svg" xmlns:xlink="http://www.w3.org/1999/xlink" x="0px" y="0px"
	 viewBox="0 0 1000 1000" style="enable-background:new 0 0 1000 1000;" xml:space="preserve">
<style type="text/css">
	.st0{fill:#5E454B;}
	.st1{fill:none;}
</style>
<g>
	<g>
		<path class="st0" d="M899.5,836.2h-231c-8,0-12-4-12-12v-51c0-8,4-12,12-12h67v-498h-1l-190,472c-8,20-22.7,30-44,30
			c-21.3,0-36-10-44-30l-190-472h-2v498h67c8.7,0,13,4,13,12v51c0,8-4.3,12-13,12h-230c-8.7,0-13-4-13-12v-51c0-8,4.3-12,13-12h76
			v-568h-76c-8.7,0-13-4-13-12v-51c0-8,4.3-12,13-12h154c22.7,0,38.3,11.3,47,34l149,360l47,126h4c18.7-52,34-93.3,46-124l150-362
			c8.7-22.7,24.7-34,48-34h153c8,0,12,4,12,12v51c0,8-4,12-12,12h-77v568h77c8,0,12,4,12,12v51C911.5,832.2,907.5,836.2,899.5,836.2
			z"/>
	</g>
	<line class="st1" x1="330" y1="836" x2="738" y2="836"/>
	<rect x="289" y="648" class="st0" width="422" height="188"/>
	<rect x="242" y="244" class="st0" width="85" height="521"/>
	<rect x="314" y="394" class="st0" width="40" height="286"/>
	<rect x="340" y="471" class="st0" width="81" height="220"/>
	<rect x="673" y="252" class="st0" width="119" height="532"/>
	<rect x="645" y="399" class="st0" width="50" height="356"/>
	<rect x="560" y="582" class="st0" width="117" height="150"/>
	<rect x="599" y="442" class="st0" width="99" height="160"/>
</g>
<g>
</g>
<g>
</g>
<g>
</g>
<g>
</g>
<g>
</g>
</svg>
